<?xml version="1.0" encoding="UTF-8"?>
<svg xmlns="http://www.w3.org/2000/svg" viewBox="0 0 24 24">
  <path fill="#EA4335" d="M12.19 2.38a9.344 9.344 0 0 0-9.234 6.893c.053-.02-.055.013 0 0l3.71-1.7a5.832 5.832 0 0 1 5.524-2.329l.194.017c1.013.075 1.965.42 2.783 1.007l-.231.278-.231.277A5.25 5.25 0 0 0 12.2 5.5a5.313 5.313 0 0 0-4.574 3.4l-3.683 1.7a9.34 9.34 0 0 0 1.56 4.941l5.773-3.272a5.25 5.25 0 0 0 8.947-3.72s0-1.613.107-2.065l-5.907-.002"/>
  <path fill="#4285F4" d="M19.711 10.132h2.067v3.507c0 4.694-4.297 7.823-9.385 7.823A9.346 9.346 0 0 1 3 12.116c0-1.37.302-2.716.88-3.95l5.87 10.173h.001c.469.808 1.308 1.278 2.255 1.278a2.67 2.67 0 0 0 2.296-1.313l6.41-11.093"/>
  <path fill="#34A853" d="m12.123 19.817-5.87-10.173A9.302 9.302 0 0 1 12.2 2.377c2.493-.036 4.925.864 6.72 2.505l-2.424 4.2a5.317 5.317 0 0 0-4.296-2.199c-.933 0-1.827.269-2.588.761l5.871 10.173c-.43.314-.96.481-1.508.481a2.67 2.67 0 0 1-1.852-.481"/>
  <path fill="#FBBC05" d="m3.88 8.166 3.71-1.7a5.332 5.332 0 0 1 4.574-3.4 5.313 5.313 0 0 1 4.296 2.199l2.425-4.2A9.332 9.332 0 0 0 12.19 2.38a9.346 9.346 0 0 0-8.308 5.786"/>
</svg>